<?xml version="1.0" encoding="utf-8"?>
<!-- Generator: Adobe Illustrator 20.0.0, SVG Export Plug-In . SVG Version: 6.00 Build 0)  -->
<svg version="1.1" id="Layer_1" xmlns="http://www.w3.org/2000/svg" xmlns:xlink="http://www.w3.org/1999/xlink" x="0px" y="0px"
	 viewBox="0 0 184.8 232.9" style="enable-background:new 0 0 184.8 232.9;" xml:space="preserve">
<style type="text/css">
	.st0{fill:#F08E21;}
	.st1{fill:#692F12;}
	.st2{fill:#592811;}
	.st3{fill:#FEE68C;}
	.st4{fill:#F6DC76;}
</style>
<g>
	<path class="st0" d="M130.9,195.9h-3.1V180h3.1c20.9,0,38-17,38-38V98.5c0-1.9-1.5-3.4-3.4-3.4h-37.8V79.2h37.8
		c10.6,0,19.3,8.6,19.3,19.3V142C184.7,171.7,160.6,195.9,130.9,195.9z"/>
	<path class="st0" d="M91.4,232.9H41.7c-23,0-41.6-18.6-41.6-41.6V71.1H133v120.1C133,214.2,114.4,232.9,91.4,232.9z"/>
	<path class="st1" d="M41.7,224.9C23.1,224.9,8,209.8,8,191.2v-127h117v127c0,18.6-15.1,33.7-33.7,33.7H41.7z"/>
	<path class="st2" d="M125,191.2v-127H66.5v160.7h24.8C110,224.9,125,209.8,125,191.2z"/>
	<path class="st3" d="M136,51.8c0-9.2-6.9-16.8-15.9-17.8c0.9-2.1,1.3-4.4,1.3-6.8c0-9.9-8-17.9-17.9-17.9
		c-8.1,0-14.9,5.4-17.1,12.7c-3.3-1.6-6.9-2.5-10.8-2.5c-2.6,0-5.2,0.4-7.5,1.2C64.8,8.8,53.9,0,40.9,0C25.3,0,12.7,12.6,12.7,28.2
		c0,0.6,0,1.2,0.1,1.8C5.2,34.2,0,42.3,0,51.6c0,7.2,3.1,13.6,7.9,18.1v34.4h117V68.3C131.5,65.6,136,59.2,136,51.8z"/>
	<path class="st4" d="M20.6,57.2c0-0.6-0.1-1.2-0.1-1.8c0-15.6,12.6-28.2,28.2-28.2c13,0,23.9,8.8,27.2,20.7
		c2.4-0.8,4.9-1.2,7.5-1.2c3.9,0,7.5,0.9,10.8,2.5c2.2-7.3,9-12.7,17.1-12.7c9.9,0,17.9,8,17.9,17.9c0,2.4-0.5,4.7-1.3,6.8
		c1.6,0.2,3.2,0.6,4.7,1.2c2.2-3,3.5-6.6,3.5-10.6c0-9.2-6.9-16.8-15.9-17.8c0.9-2.1,1.3-4.4,1.3-6.8c0-9.9-8-17.9-17.9-17.9
		c-8.1,0-14.9,5.4-17.1,12.7c-3.3-1.6-6.9-2.5-10.8-2.5c-2.6,0-5.2,0.4-7.5,1.2C64.9,8.8,54,0,41,0C25.4,0,12.8,12.6,12.8,28.2
		c0,0.6,0,1.2,0.1,1.8C5.3,34.2,0.1,42.3,0.1,51.6c0,7.2,3.1,13.6,7.9,18.1v5.5C9.2,67.4,14,60.8,20.6,57.2z"/>
</g>
</svg>
